<?xml version="1.0" standalone="no"?>
<!DOCTYPE svg PUBLIC "-//W3C//DTD SVG 20010904//EN"
 "http://www.w3.org/TR/2001/REC-SVG-20010904/DTD/svg10.dtd">
<svg version="1.0" xmlns="http://www.w3.org/2000/svg"
 width="40.000000pt" height="40.000000pt" viewBox="0 0 40.000000 40.000000"
 preserveAspectRatio="xMidYMid meet">

<g transform="translate(0.000000,40.000000) scale(0.100000,-0.100000)"
fill="#000000" stroke="none">
<path d="M130 315 c-9 -10 -9 -15 -1 -15 6 0 11 5 11 10 0 6 12 9 28 9 16 -1
20 -3 10 -6 -24 -6 -23 -28 2 -53 23 -23 26 -40 6 -40 -8 0 -16 -5 -18 -12 -7
-19 -28 1 -28 27 0 13 -4 26 -9 29 -5 4 -7 -3 -4 -14 3 -13 -1 -22 -11 -26
-14 -5 -12 -9 10 -20 33 -17 68 -19 58 -2 -4 7 -3 8 4 4 7 -4 12 -21 12 -37 0
-19 -4 -28 -11 -24 -6 4 -5 -1 2 -13 17 -27 5 -52 -26 -52 -25 0 -34 14 -15
25 6 3 10 17 10 30 0 13 8 29 18 35 14 9 13 10 -10 6 -15 -4 -30 -2 -33 4 -10
16 -35 12 -35 -6 0 -10 7 -14 23 -12 30 4 39 -41 9 -49 -19 -5 -19 -6 -4 -24
19 -22 52 -25 70 -7 16 16 16 220 0 236 -17 17 -53 15 -68 -3z m70 -30 c0 -30
-16 -33 -23 -5 -3 11 -1 18 4 14 5 -3 9 0 9 5 0 6 2 11 5 11 3 0 5 -11 5 -25z"/>
<path d="M260 305 c0 -7 -8 -19 -17 -24 -10 -6 -14 -11 -10 -11 15 0 57 32 51
41 -8 14 -24 10 -24 -6z"/>
<path d="M93 288 c-21 -30 -35 -90 -25 -112 5 -11 15 -32 21 -46 l11 -25 -6
25 c-3 14 -10 35 -17 48 -8 18 -8 28 1 42 7 11 12 28 12 38 0 10 5 23 12 30 7
7 9 12 6 12 -3 0 -10 -6 -15 -12z"/>
<path d="M288 264 c-8 -8 -24 -16 -36 -17 -12 -1 -18 -4 -14 -8 8 -9 82 12 82
23 0 15 -17 16 -32 2z"/>
<path d="M305 210 c-3 -6 1 -13 10 -16 19 -8 30 0 20 15 -8 14 -22 14 -30 1z"/>
<path d="M230 200 c0 -5 14 -10 30 -10 17 0 30 5 30 10 0 6 -13 10 -30 10 -16
0 -30 -4 -30 -10z"/>
<path d="M230 161 c0 -6 11 -11 24 -11 13 0 29 -7 36 -15 7 -8 16 -12 21 -9
16 9 10 22 -13 27 -13 3 -33 9 -45 12 -15 5 -23 3 -23 -4z"/>
<path d="M243 119 c9 -5 17 -17 17 -24 0 -16 16 -20 24 -6 6 9 -36 41 -51 41
-4 0 0 -5 10 -11z"/>
</g>
</svg>
